<svg xmlns="http://www.w3.org/2000/svg" viewBox="0 0 197.76 118.9" version="1.0"
     style="background: #f0f0f0">
  <g fill-rule="evenodd">
    <path
        d="M88.992 14.954v.006-.006c-12.277-.038-23.415 4.911-31.492 12.944-8.08 8.03-13.098 19.136-13.132 31.414h.007v.003h-.007c-.037 12.278 4.912 23.412 12.942 31.492 8.032 8.077 19.14 13.095 31.417 13.132v-.007h.003v.007c12.274.038 23.411-4.915 31.489-12.945 8.08-8.03 13.097-19.136 13.131-31.413h-.006v-.004h.006c.038-12.277-4.911-23.414-12.94-31.492-8.034-8.08-19.14-13.094-31.418-13.131z"
        class="fil0" fill="#fff"/>
    <path class="fil1" fill-rule="nonzero"
          d="M89.006 11.162v.007c13.336.04 25.389 5.48 34.096 14.238 8.706 8.761 14.07 20.845 14.033 34.18h.007v.004h-.007c-.04 13.336-5.48 25.389-14.238 34.096s-20.845 14.075-34.18 14.034v.007-.007c-13.337-.041-25.393-5.477-34.1-14.238-8.707-8.758-14.071-20.845-14.034-34.178h-.007v-.003h.007c.041-13.336 5.48-25.393 14.238-34.1 8.762-8.707 20.845-14.07 34.181-14.033v-.007h.004zm-.014 3.792v.006-.006c-12.277-.038-23.415 4.911-31.492 12.944-8.08 8.03-13.098 19.136-13.132 31.414h.007v.003h-.007c-.037 12.278 4.912 23.412 12.942 31.492 8.032 8.077 19.14 13.095 31.417 13.132v-.007h.003v.007c12.274.038 23.411-4.915 31.489-12.945 8.08-8.03 13.097-19.136 13.135-31.413h-.01v-.004h.01c.034-12.277-4.915-23.414-12.945-31.492-8.033-8.08-19.14-13.094-31.417-13.131z"/>
    <path
        d="M88.948 29.992v.003h-.004v-.003c-8.128-.024-15.5 3.25-20.848 8.567s-8.666 12.669-8.69 20.797h.004v.004h-.004c-.024 8.128 3.25 15.5 8.568 20.848 5.313 5.347 12.669 8.67 20.797 8.693v-.003h.003v.003c8.129.024 15.501-3.254 20.849-8.567 5.347-5.317 8.666-12.673 8.693-20.8h-.007.007c.024-8.13-3.254-15.502-8.57-20.85-5.314-5.347-12.67-8.669-20.798-8.692z"
        class="fil0" fill="#fff"/>
    <path class="fil1" fill-rule="nonzero"
          d="M88.955 28.096v.003a31.257 31.257 0 0 1 22.138 9.245c5.654 5.69 9.14 13.537 9.112 22.193h.003v.003h-.003c-.024 8.66-3.557 16.485-9.245 22.138s-13.533 9.14-22.193 9.116v.003h-.003v-.003c-8.656-.028-16.485-3.56-22.138-9.248s-9.14-13.534-9.112-22.193h-.004.004c.027-8.66 3.557-16.485 9.244-22.142a31.26 31.26 0 0 1 22.193-9.112v-.003h.004zm-.007 1.896v.003h-.004v-.003c-8.128-.024-15.5 3.25-20.848 8.567s-8.666 12.669-8.69 20.797h.004v.004h-.004c-.024 8.128 3.25 15.5 8.568 20.848 5.313 5.347 12.669 8.67 20.797 8.693v-.003h.003v.003c8.129.024 15.501-3.254 20.849-8.567 5.347-5.317 8.666-12.673 8.693-20.8h-.007.007c.024-8.13-3.254-15.502-8.57-20.85-5.314-5.347-12.67-8.669-20.798-8.692z"/>
    <path
        d="M90.023 97.717c14.31-1.821 30.43-10.041 38.623-24.957-4.734 11.583-14.18 26.284-38.636 29.031.003-1.358-1.334-3.9.013-4.074zM31.012 38.515l-.177 57.34c0 .892-1.56 1.613-3.465 1.61-1.903-.007-3.462-.742-3.455-1.63l.17-57.337c-3.25-1.55-5.528-5.201-5.514-9.45.013-3.985 2.035-7.433 4.976-9.104l-.037 12.631 2.001.007.044-13.459c.283-.075.576-.136.868-.177l-.04 13.64 2.001.006.04-13.683c.236.024.467.058.699.102l-.045 13.584 2.002.004.04-12.918c3.217 1.566 5.47 5.198 5.457 9.422-.014 4.248-2.311 7.883-5.565 9.412zM146.588 53.035l-.126 43.167c-.004.889 1.552 1.624 3.455 1.627 1.906.007 3.465-.718 3.468-1.606.11-24.613-.105-49.26.221-73.87.348-.69-6.593 4.136-8.342 10.365-1.049 7.696.561 16.352 1.324 20.314v.003zM173.617 38.93l-.17 57.337c-.003.892-1.562 1.613-3.468 1.61-1.903-.007-3.462-.739-3.459-1.63l.174-57.337c-3.25-1.553-5.528-5.201-5.514-9.45.017-5.64 4.064-10.2 9.034-10.187 4.973.014 8.989 4.602 8.972 10.242-.014 4.248-2.311 7.883-5.569 9.415z"
        class="fil2"/>
  </g>
</svg>
